<svg width="20" height="20" viewBox="0 0 20 20" fill="none" xmlns="http://www.w3.org/2000/svg">
<path d="M10.0308 5.27539C14.1483 2.07879 12.0351 0 12.0351 0C12.3496 3.30462 8.63281 4.08489 7.63653 6.35573C6.95669 7.90528 8.10204 9.26209 10.0294 10.9721C9.85901 10.5934 9.59622 10.2254 9.33018 9.85279C8.42279 8.58205 7.47751 7.25824 10.0308 5.27539Z" fill="#E76F00"/>
<path d="M10.6881 11.6731C10.6881 11.6731 11.9269 10.6737 10.9459 9.56297C7.62037 5.79491 14.583 4.08489 14.583 4.08489C10.332 6.13281 10.9667 7.34839 12.0351 8.8251C13.1791 10.4086 10.6881 11.6731 10.6881 11.6731Z" fill="#E76F00"/>
<path d="M14.3356 14.6535C18.1514 12.7036 16.3872 10.8298 15.1557 11.0823C14.8539 11.1441 14.7193 11.1976 14.7193 11.1976C14.7193 11.1976 14.8314 11.025 15.0454 10.9503C17.4816 10.108 19.3551 13.4343 14.259 14.7518C14.259 14.7518 14.318 14.6999 14.3356 14.6535Z" fill="#5382A1"/>
<path d="M6.39565 12.1856C4.0082 11.8721 7.70466 11.0087 7.70466 11.0087C7.70466 11.0087 6.26918 10.9135 4.5037 11.7527C2.41611 12.7457 9.66754 13.1974 13.4212 12.2265C13.8115 11.9645 14.3509 11.7373 14.3509 11.7373C14.3509 11.7373 12.8148 12.0072 11.2851 12.134C9.41324 12.2883 7.40371 12.3183 6.39565 12.1856Z" fill="#5382A1"/>
<path d="M7.30397 14.0474C5.97265 13.912 6.84437 13.2774 6.84437 13.2774C3.39937 14.4018 8.7611 15.6769 13.5749 14.2927C13.0632 14.1152 12.7378 13.7908 12.7378 13.7908C10.3852 14.2363 9.0256 14.222 7.30397 14.0474Z" fill="#5382A1"/>
<path d="M7.88405 16.062C6.55372 15.9116 7.33094 15.4671 7.33094 15.4671C4.20371 16.3264 9.23308 18.1016 13.2145 16.4236C12.5624 16.1742 12.0955 15.8863 12.0955 15.8863C10.3194 16.2168 9.49572 16.2428 7.88405 16.062Z" fill="#5382A1"/>
<path d="M16.2117 17.0867C16.2117 17.0867 16.7868 17.5528 15.5782 17.9133C13.2801 18.5979 6.01308 18.8046 3.99434 17.9406C3.26865 17.6301 4.62952 17.1993 5.05759 17.1089C5.50403 17.0137 5.75916 17.0314 5.75916 17.0314C4.95212 16.4724 0.542805 18.1292 3.51944 18.6037C11.6372 19.8982 18.3173 18.0207 16.2117 17.0867Z" fill="#5382A1"/>
<path d="M17.5 18.1049C17.3668 19.8092 11.7423 20.1677 8.07963 19.9371C5.6902 19.7864 5.21133 19.4099 5.20432 19.4044C7.49118 19.7751 11.3468 19.8426 14.473 19.2641C17.2439 18.751 17.5 18.1049 17.5 18.1049Z" fill="#5382A1"/>
</svg>
