<svg width="20" height="20" viewBox="0 0 20 20" fill="none" xmlns="http://www.w3.org/2000/svg">
<rect x="1.25" y="1.25" width="17.5" height="17.5" fill="#FFCA28"/>
<path d="M11.875 15.8048L13.1635 14.9522C13.2644 15.2695 13.9038 16.0229 14.7115 16.0229C15.5192 16.0229 15.8942 15.5817 15.8942 15.2893C15.8942 14.4923 15.0695 14.2113 14.6734 14.0763C14.6088 14.0543 14.5556 14.0362 14.5192 14.0203C14.5006 14.0122 14.4724 14.0015 14.4362 13.9876C13.9956 13.8193 12.3702 13.1983 12.3702 11.3982C12.3702 9.41551 14.2837 9.1875 14.7163 9.1875C14.9994 9.1875 16.3606 9.2222 17.0385 10.4961L15.7885 11.3685C15.5144 10.8133 15.0591 10.6299 14.7788 10.6299C14.0865 10.6299 13.9423 11.1375 13.9423 11.3685C13.9423 12.0167 14.6945 12.3073 15.3296 12.5526C15.4957 12.6168 15.6539 12.6779 15.7885 12.7415C16.4808 13.0687 17.5 13.604 17.5 15.2893C17.5 16.1334 16.792 17.5 15.0096 17.5C12.6154 17.5 11.9808 16.0625 11.875 15.8048Z" fill="#3E3E3E"/>
<path d="M5.625 15.9741L6.96792 15.122C7.07315 15.439 7.48204 16.0236 8.07533 16.0236C8.66862 16.0236 8.97228 15.4143 8.97228 15.122V9.375H10.6239V15.122C10.6506 15.9146 10.211 17.5 8.27076 17.5C6.48687 17.5 5.74526 16.4398 5.625 15.9741Z" fill="#3E3E3E"/>
</svg>
