<svg width="9" height="9" viewBox="0 0 9 9" fill="none" xmlns="http://www.w3.org/2000/svg">
<path fill-rule="evenodd" clip-rule="evenodd" d="M4.5 0C2.01375 0 0 2.01375 0 4.5C0 6.49125 1.28812 8.17313 3.07687 8.76937C3.30187 8.80875 3.38625 8.67375 3.38625 8.55562C3.38625 8.44875 3.38063 8.09438 3.38063 7.7175C2.25 7.92562 1.9575 7.44187 1.8675 7.18875C1.81687 7.05938 1.5975 6.66 1.40625 6.55312C1.24875 6.46875 1.02375 6.26062 1.40062 6.255C1.755 6.24937 2.00813 6.58125 2.0925 6.71625C2.4975 7.39687 3.14438 7.20563 3.40313 7.0875C3.4425 6.795 3.56063 6.59812 3.69 6.48562C2.68875 6.37313 1.6425 5.985 1.6425 4.26375C1.6425 3.77437 1.81687 3.36937 2.10375 3.05437C2.05875 2.94187 1.90125 2.48062 2.14875 1.86187C2.14875 1.86187 2.52562 1.74375 3.38625 2.32313C3.74625 2.22187 4.12875 2.17125 4.51125 2.17125C4.89375 2.17125 5.27625 2.22187 5.63625 2.32313C6.49688 1.73813 6.87375 1.86187 6.87375 1.86187C7.12125 2.48062 6.96375 2.94187 6.91875 3.05437C7.20563 3.36937 7.38 3.76875 7.38 4.26375C7.38 5.99062 6.32812 6.37313 5.32688 6.48562C5.49 6.62625 5.63063 6.89625 5.63063 7.31813C5.63063 7.92 5.625 8.40375 5.625 8.55562C5.625 8.67375 5.70938 8.81437 5.93438 8.76937C7.71187 8.17313 9 6.48562 9 4.5C9 2.01375 6.98625 0 4.5 0Z" fill="#8261D0"/>
</svg>
