<svg width="20" height="20" viewBox="0 0 20 20" fill="none" xmlns="http://www.w3.org/2000/svg">
<path fill-rule="evenodd" clip-rule="evenodd" d="M8.13524 1.25C6.76208 1.25 5.6489 2.32783 5.6489 3.65741V5.32407H9.95218V5.78703H3.73634C2.36317 5.78703 1.25 6.86487 1.25 8.19444L1.25 11.8056C1.25 13.1351 2.36317 14.213 3.73634 14.213H5.17076V12.1759C5.17076 10.8463 6.28393 9.76851 7.6571 9.76851H12.2473C13.4092 9.76851 14.3511 8.8565 14.3511 7.73148V3.65741C14.3511 2.32783 13.2379 1.25 11.8647 1.25H8.13524ZM7.56147 4.21296C8.0368 4.21296 8.42213 3.83987 8.42213 3.37963C8.42213 2.91939 8.0368 2.5463 7.56147 2.5463C7.08614 2.5463 6.70082 2.91939 6.70082 3.37963C6.70082 3.83987 7.08614 4.21296 7.56147 4.21296Z" fill="url(#paint0_linear_211_49)"/>
<path fill-rule="evenodd" clip-rule="evenodd" d="M11.8648 18.7501C13.2379 18.7501 14.3511 17.6722 14.3511 16.3427V14.676L10.0478 14.676L10.0478 14.213L16.2637 14.213C17.6368 14.213 18.75 13.1352 18.75 11.8056V8.19452C18.75 6.86494 17.6368 5.78711 16.2637 5.78711L14.8292 5.78711V7.82415C14.8292 9.15372 13.7161 10.2316 12.3429 10.2316L7.75275 10.2316C6.59084 10.2316 5.64893 11.1436 5.64893 12.2686L5.64893 16.3427C5.64893 17.6722 6.7621 18.7501 8.13526 18.7501H11.8648ZM12.4385 15.7871C11.9632 15.7871 11.5779 16.1602 11.5779 16.6204C11.5779 17.0807 11.9632 17.4538 12.4385 17.4538C12.9139 17.4538 13.2992 17.0807 13.2992 16.6204C13.2992 16.1602 12.9139 15.7871 12.4385 15.7871Z" fill="url(#paint1_linear_211_49)"/>
<defs>
<linearGradient id="paint0_linear_211_49" x1="7.80054" y1="1.25" x2="7.80054" y2="14.213" gradientUnits="userSpaceOnUse">
<stop stop-color="#327EBD"/>
<stop offset="1" stop-color="#1565A7"/>
</linearGradient>
<linearGradient id="paint1_linear_211_49" x1="12.1995" y1="5.78711" x2="12.1995" y2="18.7501" gradientUnits="userSpaceOnUse">
<stop stop-color="#FFDA4B"/>
<stop offset="1" stop-color="#F9C600"/>
</linearGradient>
</defs>
</svg>
