<svg width="20" height="20" viewBox="0 0 20 20" fill="none" xmlns="http://www.w3.org/2000/svg">
<path d="M11.6743 9.98494C11.6743 9.08842 10.9247 8.36158 10 8.36158C9.07535 8.36158 8.3257 9.08842 8.3257 9.98494C8.3257 10.8815 9.07535 11.6084 10 11.6084C10.9247 11.6084 11.6743 10.8815 11.6743 9.98494Z" fill="#53C1DE"/>
<path fill-rule="evenodd" clip-rule="evenodd" d="M15.4377 6.97106C15.7913 5.57799 16.2358 2.99468 14.669 2.11885C13.1096 1.24684 11.0803 2.91777 10.0087 3.92074C8.94027 2.92776 6.85397 1.26398 5.28852 2.14258C3.72969 3.01752 4.2104 5.558 4.57181 6.9598C3.11769 7.36026 0.625 8.22275 0.625 9.98494C0.625 11.7421 3.1151 12.6805 4.56061 13.0806C4.19786 14.4901 3.74122 16.9943 5.30204 17.8673C6.8733 18.7457 8.95314 17.1216 10.0346 16.1076C11.113 17.1165 13.1229 18.7513 14.6826 17.8759C16.2473 16.9977 15.8397 14.449 15.4783 13.039C16.8795 12.6381 19.375 11.7202 19.375 9.98494C19.375 8.23967 16.869 7.37017 15.4377 6.97106ZM15.2601 12.2919C15.0228 11.5635 14.7025 10.7889 14.3107 9.9888C14.6847 9.20758 14.9925 8.443 15.2232 7.7193C16.2724 8.01423 18.5741 8.68831 18.5741 9.98494C18.5741 11.2937 16.3654 11.9742 15.2601 12.2919ZM14.2812 17.2038C13.1175 17.8569 11.3888 16.2935 10.5924 15.5506C11.1207 14.9903 11.6487 14.3389 12.1641 13.6156C13.0705 13.5376 13.9269 13.4101 14.7035 13.2361C14.9579 14.2334 15.4501 16.5477 14.2812 17.2038ZM5.70226 17.1944C4.53839 16.5438 5.07036 14.3091 5.33723 13.2708C6.10522 13.4355 6.95535 13.554 7.86399 13.6255C8.38271 14.3333 8.92598 14.9838 9.47349 15.5535C8.79704 16.188 6.87157 17.8481 5.70226 17.1944ZM1.42593 9.98494C1.42593 8.67123 3.71379 8.00208 4.7869 7.70788C5.02157 8.44783 5.32935 9.2215 5.70077 10.0038C5.32453 10.7979 5.01236 11.5838 4.77553 12.3325C3.75231 12.0485 1.42593 11.2995 1.42593 9.98494ZM5.68981 2.81471C6.85844 2.15885 8.6717 3.75614 9.44743 4.47508C8.90275 5.04221 8.36445 5.68787 7.85022 6.39154C6.96838 6.47079 6.12422 6.59807 5.34818 6.76856C5.05703 5.63795 4.52245 3.46987 5.68981 2.81471ZM12.737 7.23568C13.3353 7.3089 13.9085 7.40625 14.4467 7.5254C14.2851 8.02753 14.0837 8.55258 13.8466 9.09083C13.5027 8.45829 13.1337 7.8385 12.737 7.23568ZM10.009 5.03007C10.3784 5.4181 10.7484 5.85144 11.1124 6.32154C10.3741 6.28772 9.63457 6.28756 8.89627 6.32106C9.26056 5.8553 9.63372 5.42261 10.009 5.03007ZM6.16031 9.09027C5.92706 8.55387 5.72749 8.02648 5.56451 7.5172C6.09949 7.4011 6.66998 7.30624 7.26437 7.23423C6.86664 7.83573 6.49819 8.4553 6.16031 9.09027ZM7.28147 12.7911C6.66741 12.7246 6.08829 12.6346 5.55348 12.5217C5.71902 12.0034 5.92299 11.4647 6.16123 10.9168C6.50377 11.5583 6.8778 12.1839 7.28147 12.7911ZM10.0311 14.9947C9.65148 14.5975 9.27284 14.1582 8.90299 13.6857C9.64552 13.714 10.3895 13.714 11.1319 13.6819C10.7667 14.163 10.3981 14.6029 10.0311 14.9947ZM13.8542 10.8889C14.1048 11.4427 14.3161 11.9786 14.4839 12.4881C13.9402 12.6084 13.3533 12.7052 12.7348 12.7772C13.1344 12.163 13.5093 11.5335 13.8542 10.8889ZM11.717 12.8713C10.5813 12.95 9.43848 12.9491 8.30238 12.8777C7.6568 11.9634 7.08215 11.0019 6.58609 10.0036C7.07972 9.00743 7.65022 8.04777 8.29275 7.13487C9.42972 7.05154 10.5736 7.05134 11.7106 7.13535C12.3475 8.0482 12.9172 9.00537 13.4223 9.99258C12.9232 10.9883 12.3497 11.9499 11.717 12.8713ZM14.2689 2.79162C15.4379 3.44534 14.9176 5.76704 14.6622 6.7766C13.8843 6.60258 13.0396 6.47304 12.1552 6.39259C11.6399 5.68128 11.1061 5.03449 10.5702 4.47468C11.356 3.74026 13.1113 2.1443 14.2689 2.79162Z" fill="#53C1DE"/>
</svg>
